<svg xmlns="http://www.w3.org/2000/svg" viewBox="0 0 32 32" id="vision">
    <ellipse cx="16" cy="16" fill="#80b6ff" rx="14" ry="9"></ellipse>
    <circle cx="16" cy="16" r="4" fill="#faf7f5"></circle>
    <path fill="#6d6daa"
        d="M30.89 15.54A17 17 0 0 0 16 6a17 17 0 0 0-14.89 9.54 1 1 0 0 0 0 .92A17 17 0 0 0 16 26a17 17 0 0 0 14.89-9.54 1 1 0 0 0 0-.92ZM16 24a14.94 14.94 0 0 1-12.86-8A14.94 14.94 0 0 1 16 8a14.94 14.94 0 0 1 12.86 8A14.94 14.94 0 0 1 16 24Z"></path>
    <path fill="#6d6daa"
        d="M16 11a5 5 0 1 0 5 5 5 5 0 0 0-5-5zm0 8a3 3 0 1 1 3-3 3 3 0 0 1-3 3zm0-14a1 1 0 0 0 1-1V2a1 1 0 0 0-2 0v2a1 1 0 0 0 1 1zm5.55.89A.93.93 0 0 0 22 6a1 1 0 0 0 .89-.55l1-2a1 1 0 0 0-1.78-.9l-1 2a1 1 0 0 0 .44 1.34zM9.11 5.45A1 1 0 0 0 10 6a.93.93 0 0 0 .45-.11 1 1 0 0 0 .44-1.34l-1-2a1 1 0 1 0-1.78.9zM16 27a1 1 0 0 0-1 1v2a1 1 0 0 0 2 0v-2a1 1 0 0 0-1-1zm6.89-.45a1 1 0 0 0-1.78.9l1 2A1 1 0 0 0 23 30a.93.93 0 0 0 .45-.11 1 1 0 0 0 .44-1.34zm-12.44-.44a1 1 0 0 0-1.34.44l-1 2a1 1 0 0 0 .44 1.34A.93.93 0 0 0 9 30a1 1 0 0 0 .89-.55l1-2a1 1 0 0 0-.44-1.34z"></path>
</svg>